<svg width="17" height="17" viewBox="0 0 17 17" fill="none" xmlns="http://www.w3.org/2000/svg">
<path d="M14.5132 2.48677C11.1975 -0.828989 5.80239 -0.828856 2.48677 2.48677C-0.828856 5.80239 -0.828989 11.1975 2.48677 14.5132C5.80253 17.829 11.1976 17.8289 14.5132 14.5132C17.8288 11.1976 17.829 5.80253 14.5132 2.48677ZM12.0303 11.2458C12.2469 11.4625 12.2468 11.8137 12.0303 12.0303C11.8137 12.2468 11.4625 12.2469 11.2458 12.0303L8.50001 9.2845L5.75425 12.0303C5.5377 12.2468 5.18644 12.2469 4.96976 12.0303C4.75308 11.8136 4.75321 11.4623 4.96976 11.2458L7.71552 8.50001L4.96976 5.75425C4.75308 5.53756 4.75321 5.18628 4.96976 4.96976C5.18631 4.75324 5.53756 4.75308 5.75425 4.96976L8.50001 7.71552L11.2458 4.96976C11.4623 4.75321 11.8136 4.75308 12.0303 4.96976C12.2469 5.18644 12.2468 5.53773 12.0303 5.75425L9.2845 8.50001L12.0303 11.2458Z" fill="#C6D8E1"/>
</svg>
