<svg width="21" height="20" viewBox="0 0 21 20" fill="none" xmlns="http://www.w3.org/2000/svg">
<g clip-path="url(#clip0_2437_82981)">
<path d="M14.5574 3.56738H2.18362C0.977637 3.56738 0 4.52559 0 5.7076V17.8355C0 19.0175 0.977637 19.9757 2.18362 19.9757H14.5574C15.7634 19.9757 16.741 19.0175 16.741 17.8355V5.7076C16.741 4.52559 15.7634 3.56738 14.5574 3.56738Z" fill="#C6D8E1"/>
<path d="M18.1969 1.38196e-09H5.09524C3.89578 -4.17998e-05 2.92083 0.948217 2.91162 2.12379C2.91162 2.12952 2.91162 2.13449 2.91162 2.14022H14.5576C16.5666 2.14256 18.1945 3.73819 18.1969 5.70724V17.1217C18.2028 17.1217 18.2078 17.1217 18.2137 17.1217C19.4131 17.1127 20.3806 16.1571 20.3805 14.9815V2.14022C20.3805 0.958208 19.4029 1.38196e-09 18.1969 1.38196e-09Z" fill="#C6D8E1"/>
</g>
<defs>
<clipPath id="clip0_2437_82981">
<rect width="20.3804" height="19.9754" fill="white"/>
</clipPath>
</defs>
</svg>
